<svg width="24" height="24" viewBox="0 0 24 24" fill="none" xmlns="http://www.w3.org/2000/svg">
<path d="M20.2828 14.8709L16.3963 10.3013L19.8484 8.3318C20.1857 8.13942 20.3031 7.70995 20.1108 7.37269C19.9183 7.03538 19.4888 6.91791 19.1516 7.11033C18.8629 7.275 12.3213 11.0071 12 11.1904C11.6771 11.0062 5.13396 7.27322 4.84844 7.11033C4.51113 6.91795 4.0818 7.03528 3.88929 7.37269C3.69691 7.70995 3.81429 8.13938 4.15165 8.3318L7.60376 10.3013L3.71716 14.8709C3.46559 15.1667 3.5014 15.6104 3.79723 15.862C4.09301 16.1137 4.53691 16.0777 4.78835 15.7819L8.84665 11.0104L11.6516 12.6107C11.8676 12.7339 12.1325 12.7338 12.3484 12.6107L15.1534 11.0104L19.2116 15.7819C19.4633 16.0779 19.9072 16.1135 20.2028 15.862C20.4986 15.6104 20.5344 15.1667 20.2828 14.8709Z" fill="#C8C8C8"/>
<path d="M21.8906 3.79688H2.10938C0.946266 3.79688 0 4.74314 0 5.90625V18.0938C0 19.2569 0.946266 20.2031 2.10938 20.2031H21.8906C23.0537 20.2031 24 19.2569 24 18.0938V5.90625C24 4.74314 23.0537 3.79688 21.8906 3.79688ZM22.5938 18.0938C22.5938 18.4815 22.2783 18.7969 21.8906 18.7969H2.10938C1.72167 18.7969 1.40625 18.4815 1.40625 18.0938V5.90625C1.40625 5.51855 1.72167 5.20312 2.10938 5.20312H21.8906C22.2783 5.20312 22.5938 5.51855 22.5938 5.90625V18.0938Z" fill="#C8C8C8"/>
</svg>
