<svg width="20" height="24" viewBox="0 0 20 24" fill="none" xmlns="http://www.w3.org/2000/svg">
<path d="M17.5142 11.3552L14.1179 7.95877V2.10938C14.1179 0.946266 13.1716 0 12.0085 0H2.82098C1.65787 0 0.711609 0.946266 0.711609 2.10938V21.8906C0.711609 23.0537 1.65787 24 2.82098 24H17.1647C17.4997 24 17.7881 23.7638 17.8541 23.4353L19.1644 16.9128C19.5737 14.8754 18.9568 12.7978 17.5142 11.3552ZM2.82098 1.40625H12.0085C12.3962 1.40625 12.7116 1.72167 12.7116 2.10938V11.1787C11.8492 10.3281 10.4637 10.3328 9.60717 11.1893C8.74884 12.0462 8.74472 13.4373 9.60145 14.2999L12.2947 17.0999C11.7108 17.5356 10.9545 18.2962 10.4113 19.5469H2.11786V2.10938C2.11786 1.72167 2.43323 1.40625 2.82098 1.40625ZM2.11786 21.8906V20.9531H9.95672C9.84525 21.4462 9.76641 21.9913 9.73167 22.5938H2.82098C2.43323 22.5938 2.11786 22.2783 2.11786 21.8906ZM17.7857 16.6358L16.5888 22.5938C15.4582 22.5938 12.3021 22.5938 11.1412 22.5938C11.2426 21.1003 11.6725 19.8487 12.3996 18.9452C13.0024 18.1962 13.6162 17.9277 13.6651 17.9071C14.1252 17.7425 14.2896 17.1453 13.9215 16.7626C10.5969 13.3062 10.6072 13.3167 10.6012 13.3108C10.2923 13.002 10.2875 12.4973 10.6012 12.1841C10.9111 11.8741 11.415 11.8733 11.726 12.1818C13.2125 13.7022 12.4897 12.9726 15.0909 15.5738C15.3655 15.8484 15.8107 15.8485 16.0853 15.5738C16.3599 15.2993 16.3599 14.8541 16.0853 14.5795L14.1179 12.6121V9.94753L16.5199 12.3495C17.6288 13.4585 18.1021 15.0609 17.7857 16.6358Z" fill="#C8C8C8"/>
</svg>
